<?xml version="1.0" encoding="UTF-8"?> <!-- Generator: Adobe Illustrator 16.0.0, SVG Export Plug-In . SVG Version: 6.00 Build 0) --> <svg xmlns="http://www.w3.org/2000/svg" xmlns:xlink="http://www.w3.org/1999/xlink" id="Layer_1" x="0px" y="0px" width="195.977px" height="94.19px" viewBox="0 0 195.977 94.19" xml:space="preserve"> <g> <path d="M41.303,39.71c-1.433-4.452-4.074-7.469-7.771-7.469c-2.867,0-4.904,2.264-4.904,5.206c0,3.395,3.018,5.13,6.413,6.563 c5.659,2.339,9.506,5.055,9.506,10.261c0,6.865-6.413,10.412-12.449,10.412c-3.848,0-7.318-1.434-8.675-2.566 c-0.528-1.055-1.208-6.187-1.208-8.902l1.962-0.377c1.357,4.979,4.753,9.354,9.279,9.354c2.792,0,5.357-2.112,5.357-5.281 c0-3.319-2.188-5.13-5.96-6.865c-4.526-2.112-9.43-4.603-9.43-10.412c0-5.28,4.526-9.732,11.467-9.732 c3.093,0,5.13,0.679,6.714,1.283c0.604,1.734,1.434,6.186,1.66,8.072L41.303,39.71z"></path> <path d="M77.214,57.364c-4.753,5.961-9.959,7.319-12.298,7.319c-9.279,0-14.712-7.544-14.712-16.07 c0-5.206,1.887-9.808,4.979-13.203c3.094-3.471,7.168-5.507,11.09-5.507c6.263,0,11.318,5.583,11.318,11.468 c0,1.509-0.377,2.112-1.735,2.414c-1.283,0.226-10.713,0.981-19.691,1.283c0.075,10.261,5.959,14.485,11.242,14.485 c3.017,0,5.884-1.207,8.6-3.772L77.214,57.364z M56.542,41.973c4.225,0,8.374-0.075,12.75-0.226c1.358,0,1.812-0.454,1.812-1.509 c0.075-3.923-2.49-7.545-6.64-7.545C60.994,32.694,57.674,35.863,56.542,41.973z"></path> <path d="M123.461,63.777v-1.961c4.452-0.452,5.282-0.754,5.282-6.112V43.105c0-5.357-1.887-8.751-6.639-8.751 c-2.719,0-5.583,1.508-8.45,3.922c0.15,0.906,0.226,1.736,0.226,3.168v14.712c0,4.753,0.679,5.207,4.827,5.659v1.961h-16.143 v-1.961c4.677-0.452,5.354-0.83,5.354-5.81V43.03c0-5.583-1.959-8.675-6.562-8.675c-3.019,0-5.96,2.037-8.224,3.922v17.729 c0,4.904,0.604,5.357,4.3,5.81v1.961H81.514v-1.961c4.979-0.452,5.659-0.905,5.659-5.81V40.39c0-4.829-0.227-5.206-4.603-5.885 V32.77c3.32-0.604,7.168-1.584,10.487-3.093v6.11c1.584-1.057,3.244-2.414,5.507-3.848c1.962-1.207,3.772-2.037,6.187-2.037 c3.621,0,6.865,2.264,8.375,6.187c2.188-1.66,4.376-3.093,6.26-4.225c1.585-1.056,3.547-1.961,5.658-1.961 c5.887,0,9.584,4.149,9.584,11.543v14.561c0,5.056,0.603,5.357,4.903,5.81v1.961H123.461z"></path> <path d="M167.292,64.683c-1.128,0-2.714-0.68-3.544-1.434c-0.98-1.057-1.435-2.113-1.81-3.395 c-3.018,2.038-6.641,4.829-8.903,4.829c-5.358,0-9.053-4.452-9.053-9.205c0-3.697,1.961-6.036,6.11-7.469 c4.526-1.509,10.035-3.547,11.692-4.904v-1.358c0-5.432-2.565-8.525-6.337-8.525c-1.509,0-2.64,0.604-3.394,1.508 c-0.98,0.981-1.659,2.641-2.265,4.98c-0.301,1.207-1.13,1.735-2.187,1.735c-1.359,0-3.319-1.509-3.319-3.244 c0-1.132,0.98-1.962,2.413-3.018c2.113-1.509,7.018-4.451,11.317-5.281c2.262,0,4.526,0.679,6.188,2.037 c2.641,2.188,3.394,5.282,3.394,9.205v14.033c0,3.395,1.358,4.527,2.641,4.527c0.905,0,1.962-0.378,2.716-0.831l0.756,1.961 L167.292,64.683z M161.785,45.671c-1.583,0.83-5.203,2.414-6.788,3.169c-2.942,1.357-4.602,2.791-4.602,5.507 c0,3.922,3.018,5.809,5.356,5.809c1.96-0.076,4.602-1.358,6.033-2.716V45.671z"></path> </g> <path d="M191.825,4.15v85.891H4.15V4.15H191.825 M191.825,0H4.15C1.858,0,0,1.858,0,4.15v85.891c0,2.292,1.858,4.15,4.15,4.15 h187.675c2.292,0,4.151-1.858,4.151-4.15V4.15C195.977,1.858,194.117,0,191.825,0L191.825,0z"></path> <g> </g> <g> </g> <g> </g> <g> </g> <g> </g> <g> </g> </svg> 